<svg xmlns="http://www.w3.org/2000/svg" width="20.089" height="20.089" viewBox="0 0 20.089 20.089">
  <g id="banner" transform="translate(-12798.366 1529)">
    <rect id="Rectangle_24095" data-name="Rectangle 24095" width="15" height="8" transform="translate(12801 -1523)" fill="#f0f1f4"/>
    <rect id="Rectangle_24096" data-name="Rectangle 24096" width="17" height="5" transform="translate(12800 -1528)" fill="#f0f1f4"/>
    <rect id="Rectangle_24097" data-name="Rectangle 24097" width="17" height="5" transform="translate(12800 -1514)" fill="#f0f1f4"/>
    <g id="_011-film-1" data-name="011-film-1" transform="translate(12798.366 -1529)">
      <path id="Path_6855" data-name="Path 6855" d="M19.251,0H.837A.837.837,0,0,0,0,.837V5.859A.837.837,0,0,0,.837,6.7h.837v6.7H.837A.837.837,0,0,0,0,14.229v5.022a.837.837,0,0,0,.837.837H19.251a.837.837,0,0,0,.837-.837V14.229a.837.837,0,0,0-.837-.837h-.837V6.7h.837a.837.837,0,0,0,.837-.837V.837A.837.837,0,0,0,19.251,0Zm-.837,18.414H1.674V15.066h16.74ZM3.348,13.392V6.7H16.74v6.7Zm15.066-8.37H1.674V1.674h16.74Zm0,0" fill="#bbc0d2"/>
    </g>
  </g>
</svg>
