<svg xmlns="http://www.w3.org/2000/svg" width="18" height="18" viewBox="0 0 18 18">
  <g id="user-maintenance-icon" transform="translate(-34 -17)">
    <path id="Path_6896" data-name="Path 6896" d="M12,6V4m0,2a2,2,0,0,0,0,4m0-4a2,2,0,0,1,0,4M6,18a2,2,0,0,0,0-4m0,4a2,2,0,0,1,0-4m0,4v2m0-6V4m6,6V20m6-2a2,2,0,0,0,0-4m0,4a2,2,0,0,1,0-4m0,4v2m0-6V4" transform="translate(31 14)" fill="none" stroke="#bbc0d2" stroke-linecap="round" stroke-linejoin="round" stroke-width="2"/>
    <circle id="Ellipse_158" data-name="Ellipse 158" cx="1" cy="1" r="1" transform="translate(42 21)" fill="#f0f1f4"/>
    <circle id="Ellipse_159" data-name="Ellipse 159" cx="1" cy="1" r="1" transform="translate(48 29)" fill="#f0f1f4"/>
    <circle id="Ellipse_160" data-name="Ellipse 160" cx="1" cy="1" r="1" transform="translate(36 29)" fill="#f0f1f4"/>
  </g>
</svg>
