<svg xmlns="http://www.w3.org/2000/svg" xmlns:xlink="http://www.w3.org/1999/xlink" width="27" height="27" viewBox="0 0 27 27">
  <defs>
    <clipPath id="clip-path">
      <rect id="Rectangle_24099" data-name="Rectangle 24099" width="27" height="27" transform="translate(12845 -1630)" fill="#fff"/>
    </clipPath>
  </defs>
  <g id="user-group-icon" transform="translate(-12848 1631)">
    <circle id="Ellipse_149" data-name="Ellipse 149" cx="3" cy="3" r="3" transform="translate(12850 -1624)" fill="#f0f1f4"/>
    <circle id="Ellipse_151" data-name="Ellipse 151" cx="3" cy="3" r="3" transform="translate(12867 -1624)" fill="#f0f1f4"/>
    <ellipse id="Ellipse_150" data-name="Ellipse 150" cx="3.5" cy="3" rx="3.5" ry="3" transform="translate(12858 -1625)" fill="#f0f1f4"/>
    <ellipse id="Ellipse_152" data-name="Ellipse 152" cx="6.5" cy="3.5" rx="6.5" ry="3.5" transform="translate(12855 -1616)" fill="#f0f1f4"/>
    <ellipse id="Ellipse_153" data-name="Ellipse 153" cx="4" cy="2" rx="4" ry="2" transform="translate(12849 -1616)" fill="#f0f1f4"/>
    <ellipse id="Ellipse_154" data-name="Ellipse 154" cx="4" cy="2" rx="4" ry="2" transform="translate(12866 -1616)" fill="#f0f1f4"/>
    <g id="Mask_Group_2" data-name="Mask Group 2" transform="translate(3 -1)" clip-path="url(#clip-path)">
      <g id="teamwork" transform="translate(12845 -1630)">
        <path id="Path_6862" data-name="Path 6862" d="M13.5,13.427a4.4,4.4,0,1,0-4.4-4.4,4.4,4.4,0,0,0,4.4,4.4Zm0-7.214a2.815,2.815,0,1,1-2.815,2.815A2.818,2.818,0,0,1,13.5,6.213Z" fill="#bbc0d2"/>
        <path id="Path_6863" data-name="Path 6863" d="M21.973,13.268a3.345,3.345,0,1,0-3.345-3.345A3.349,3.349,0,0,0,21.973,13.268Zm0-5.106a1.761,1.761,0,1,1-1.761,1.761A1.763,1.763,0,0,1,21.973,8.162Z" fill="#bbc0d2"/>
        <path id="Path_6864" data-name="Path 6864" d="M23.63,14.183H20.316A3.419,3.419,0,0,0,17.8,15.329a4.77,4.77,0,0,0-2.32-.6H11.528a4.769,4.769,0,0,0-2.337.609,3.355,3.355,0,0,0-2.507-1.117H3.37A3.373,3.373,0,0,0,0,17.591v1.254a.792.792,0,0,0,.792.792H6.728v1.942a.792.792,0,0,0,.792.792H19.486a.792.792,0,0,0,.792-.792V19.6h5.929A.792.792,0,0,0,27,18.806V17.553A3.373,3.373,0,0,0,23.63,14.183ZM1.584,17.591A1.787,1.787,0,0,1,3.37,15.806H6.684a1.778,1.778,0,0,1,1.267.527,4.8,4.8,0,0,0-.99,1.719H1.584Zm17.11,3.2H8.312V19.53a3.219,3.219,0,0,1,3.216-3.215h3.951a3.219,3.219,0,0,1,3.216,3.215v1.257Zm6.721-2.773H20.033a4.8,4.8,0,0,0-.989-1.694,1.833,1.833,0,0,1,1.272-.552H23.63a1.787,1.787,0,0,1,1.785,1.785Z" fill="#bbc0d2"/>
        <path id="Path_6865" data-name="Path 6865" d="M5.007,13.268A3.345,3.345,0,1,0,1.662,9.923,3.349,3.349,0,0,0,5.007,13.268Zm0-5.106A1.761,1.761,0,1,1,3.246,9.923,1.763,1.763,0,0,1,5.007,8.162Z" fill="#bbc0d2"/>
      </g>
    </g>
  </g>
</svg>
