<svg xmlns="http://www.w3.org/2000/svg" width="86.032" height="73.148" viewBox="0 0 86.032 73.148">
  <g id="welcome-smiley" transform="translate(-684 -305.982)">
    <g id="smile_1_" data-name="smile (1)" transform="translate(684 305.982)">
      <circle id="Ellipse_155" data-name="Ellipse 155" cx="36" cy="36" r="36" fill="#ffd370"/>
      <g id="Group_11682" data-name="Group 11682" transform="translate(15 24)">
        <path id="Path_6883" data-name="Path 6883" d="M17.75,17.75A2.251,2.251,0,0,1,15.5,15.5a3,3,0,0,0-6,0,2.25,2.25,0,0,1-4.5,0,7.5,7.5,0,0,1,15,0A2.251,2.251,0,0,1,17.75,17.75Z" transform="translate(-5 -8)" fill="#3f4254"/>
        <path id="Path_6884" data-name="Path 6884" d="M26.75,17.75A2.251,2.251,0,0,1,24.5,15.5a3,3,0,0,0-6,0,2.25,2.25,0,0,1-4.5,0,7.5,7.5,0,0,1,15,0A2.251,2.251,0,0,1,26.75,17.75Z" transform="translate(13 -8)" fill="#3f4254"/>
        <path id="Path_6885" data-name="Path 6885" d="M24,25.352A24.348,24.348,0,0,1,6.66,18.167a2.251,2.251,0,1,1,3.183-3.183A19.87,19.87,0,0,0,24,20.852a19.892,19.892,0,0,0,14.16-5.865,2.251,2.251,0,1,1,3.183,3.183A24.37,24.37,0,0,1,24,25.352Z" transform="translate(-2.999 4.648)" fill="#3f4254"/>
      </g>
    </g>
    <g id="waving-hand_1_" data-name="waving-hand (1)" transform="matrix(-0.966, -0.259, 0.259, -0.966, 768.183, 380.405)">
      <path id="Path_6886" data-name="Path 6886" d="M24.683,9.127V20.382a2.67,2.67,0,1,1-5.341,0V17.619l-7.235,7.235a2.315,2.315,0,0,1-3.274-3.274L7.181,23.233A2.315,2.315,0,0,1,3.907,19.96L4.864,19a2.315,2.315,0,0,1-3.274-3.274l2.361-2.361A2.315,2.315,0,0,1,.678,10.095L7.966,2.806a9.581,9.581,0,0,1,13.549,0l.939.939a7.586,7.586,0,0,1,2.229,5.381h0Z" transform="translate(4.927 0)" fill="#d6ae52"/>
    </g>
  </g>
</svg>
