<svg width="44" height="44" viewBox="0 0 44 44" fill="none" xmlns="http://www.w3.org/2000/svg">
<path fill-rule="evenodd" clip-rule="evenodd" d="M25.5494 34.7087L18.4509 34.7087C18.4509 35.891 18.4559 36.5398 18.5164 36.9898C18.5172 36.9956 18.518 37.0014 18.5188 37.007C18.5244 37.0078 18.5301 37.0086 18.536 37.0094C18.986 37.0699 19.6347 37.0749 20.817 37.0749H23.1832C24.3655 37.0749 25.0142 37.0699 25.4643 37.0094C25.4701 37.0086 25.4759 37.0078 25.4815 37.007C25.4823 37.0014 25.4831 36.9956 25.4839 36.9898C25.5444 36.5397 25.5494 35.891 25.5494 34.7087ZM25.4348 37.2383L25.4356 37.2362ZM18.5654 37.2383L18.5646 37.2362ZM16.0847 34.7087C16.0847 36.9396 16.0847 38.055 16.7777 38.748C17.4708 39.4411 18.5862 39.4411 20.817 39.4411L23.1832 39.4411C25.4141 39.4411 26.5295 39.4411 27.2225 38.748C27.9155 38.055 27.9156 36.9396 27.9156 34.7087L16.0847 34.7087Z" fill="#4E93FF"/>
<path fill-rule="evenodd" clip-rule="evenodd" d="M29.9885 20.0868C31.5131 22.126 31.8849 24.8086 30.9727 27.1878L27.9156 34.7087L16.0847 34.7087L13.0275 27.1878C12.1153 24.8086 12.4872 22.1261 14.0117 20.0868L20.0318 12.0344C21.016 10.718 22.9843 10.718 23.9684 12.0344L29.9885 20.0868ZM15.9068 21.5036L21.9269 13.4966C21.9635 13.4477 22.0348 13.4451 22.0733 13.4966L28.0934 21.5036C29.1268 22.8859 29.3829 24.7044 28.771 26.3208L26.3232 32.3426L17.677 32.3426L15.2292 26.3208C14.6173 24.7044 14.8734 22.8859 15.9068 21.5036Z" fill="#4E93FF"/>
<path d="M20.7926 14.6309C20.7925 13.9639 21.3332 13.4233 22.0001 13.4233C22.6671 13.4233 23.2077 13.964 23.2077 14.6309L23.2077 19.7952C23.9296 20.2128 24.4152 20.9933 24.4152 21.8872C24.4152 23.2211 23.3339 24.3024 22.0001 24.3024C20.6662 24.3024 19.5849 23.221 19.5849 21.8872C19.5849 20.9932 20.0706 20.2127 20.7926 19.7951L20.7926 14.6309Z" fill="white" fill-opacity="0.5"/>
<path d="M35.2613 15.5C33.3873 9.97555 28.158 6 22.0002 6C15.8424 6 10.6132 9.97555 8.73914 15.5" stroke="#438DFF" stroke-width="3" stroke-linecap="round"/>
</svg>
