<svg width="44" height="44" viewBox="0 0 44 44" fill="none" xmlns="http://www.w3.org/2000/svg">
<path d="M34.1169 18.976C34.1091 18.8577 34.0647 18.7393 34.0086 18.6295C33.9509 18.5169 33.872 18.3965 33.7778 18.271C33.5893 18.0199 33.3255 17.7294 33.0079 17.4122C32.3717 16.7767 31.4988 16.0133 30.5264 15.2101C28.5803 13.6027 26.2168 11.8209 24.5054 10.5581C23.0394 9.4763 21.0514 9.48128 19.5901 10.5693C17.8931 11.8328 15.5516 13.6116 13.6122 15.2158C12.643 16.0174 11.7701 16.7789 11.1271 17.4125C10.8061 17.7289 10.5378 18.018 10.3427 18.2673C10.2451 18.3919 10.1628 18.5106 10.1008 18.621C10.0403 18.7286 9.99109 18.8425 9.97411 18.9553C9.73438 20.5472 9.45543 24.7516 10.4909 29.4837C10.7827 30.8169 11.3143 31.819 12.1969 32.5351C13.0743 33.247 14.27 33.6527 15.8439 33.8534C19.9896 34.3822 24.0106 34.3822 28.2436 33.8535C29.8173 33.6569 31.0265 33.2563 31.9108 32.5459C32.8013 31.8305 33.3335 30.8244 33.5984 29.4786C34.5086 24.8553 34.2341 20.7353 34.1243 19.0876L34.1242 19.0857L33.8782 19.1021L34.1242 19.0857L34.1169 18.976ZM34.1169 18.976L33.8674 18.9925L34.1169 18.9759L34.1169 18.976ZM31.2427 19.1856C31.4223 19.365 31.5571 19.5101 31.6539 19.6219C31.7671 21.4067 31.9301 25.0092 31.1456 28.994C30.9621 29.9266 30.6608 30.3398 30.3467 30.5922C29.976 30.89 29.2917 31.1988 27.9343 31.3683C23.9045 31.8716 20.0935 31.8709 16.1597 31.3691C14.8096 31.1969 14.1374 30.8868 13.7703 30.589C13.4503 30.3293 13.1417 29.9012 12.933 28.9475C12.0532 24.927 12.2071 21.3182 12.3959 19.7083C12.5038 19.5824 12.6625 19.4126 12.8804 19.1977C13.4463 18.6401 14.2542 17.9325 15.2039 17.147C17.0934 15.5841 19.3941 13.8356 21.0814 12.5793C21.6612 12.1476 22.4423 12.1462 23.0228 12.5745C24.7239 13.8297 27.0435 15.5793 28.936 17.1424C29.888 17.9287 30.6899 18.6334 31.2427 19.1856Z" fill="#4E93FF" stroke="#4E93FF" stroke-width="0.5" stroke-linecap="round" stroke-linejoin="round"/>
<path d="M19 31.896C18.335 31.852 17.6689 31.7935 17 31.7204V26.114C17 24.4535 18.3431 23.1074 20 23.1074H24C25.6568 23.1074 27 24.4535 27 26.114L27 31.7278C26.3285 31.7989 25.6624 31.8558 25 31.8985L25 26.114C25 25.5605 24.5523 25.1118 24 25.1118L20 25.1118C19.4477 25.1118 19 25.5605 19 26.114V31.896Z" fill="white" fill-opacity="0.5"/>
</svg>
