<svg width="44" height="44" viewBox="0 0 44 44" fill="none" xmlns="http://www.w3.org/2000/svg">
<path opacity="0.5" d="M31 17.2045C29.6226 17.2045 28.7066 17.1271 28.0808 16.988C27.4872 16.8561 27.3385 16.7086 27.315 16.685L27.1382 16.8618L27.315 16.685C27.2915 16.6615 27.1439 16.5128 27.012 15.9192C26.8729 15.2934 26.7955 14.3774 26.7955 13C26.7955 11.6226 26.8729 10.7066 27.012 10.0808C27.1439 9.48721 27.2915 9.33854 27.315 9.315C27.3385 9.29145 27.4872 9.14392 28.0808 9.01199C28.7066 8.87292 29.6226 8.79545 31 8.79545C32.3774 8.79545 33.2934 8.87292 33.9192 9.01199C34.5128 9.14392 34.6615 9.29145 34.685 9.315C34.7085 9.33854 34.8561 9.48721 34.988 10.0808L35.2321 10.0266L34.988 10.0808C35.1271 10.7066 35.2045 11.6226 35.2045 13C35.2045 14.3774 35.1271 15.2934 34.988 15.9192C34.8561 16.5128 34.7085 16.6615 34.685 16.685C34.6615 16.7086 34.5128 16.8561 33.9192 16.988C33.2934 17.1271 32.3774 17.2045 31 17.2045ZM23.75 13C23.75 14.4468 23.8272 15.6265 24.0391 16.5799C24.2516 17.5361 24.6029 18.2798 25.1615 18.8385C25.7202 19.3971 26.4639 19.7484 27.4201 19.9609C28.3735 20.1728 29.5532 20.25 31 20.25C32.4468 20.25 33.6265 20.1728 34.5799 19.9609C35.5361 19.7484 36.2798 19.3971 36.8385 18.8385C37.3971 18.2798 37.7484 17.5361 37.9609 16.5799C38.1728 15.6265 38.25 14.4468 38.25 13C38.25 11.5532 38.1728 10.3735 37.9609 9.42011C37.7484 8.46393 37.3971 7.7202 36.8385 7.16154C36.2798 6.60287 35.5361 6.25158 34.5799 6.03907C33.6265 5.8272 32.4468 5.75 31 5.75C29.5532 5.75 28.3735 5.8272 27.4201 6.03907C26.4639 6.25158 25.7202 6.60287 25.1615 7.16154C24.6029 7.7202 24.2516 8.46393 24.0391 9.42011C23.8272 10.3735 23.75 11.5532 23.75 13Z" fill="#4E93FF" stroke="#438DFF" stroke-width="0.5" stroke-linecap="round" stroke-linejoin="round"/>
<path d="M35.2293 28.0272L34.988 28.0808C34.8561 27.4872 34.7085 27.3385 34.685 27.315C34.6615 27.2915 34.5128 27.1439 33.9192 27.012C33.2934 26.8729 32.3774 26.7955 31 26.7955C29.6226 26.7955 28.7066 26.8729 28.0808 27.012C27.4872 27.1439 27.3385 27.2915 27.315 27.315L27.315 27.315C27.2915 27.3385 27.1439 27.4872 27.012 28.0808C26.8729 28.7066 26.7955 29.6226 26.7955 31C26.7955 32.3774 26.8729 33.2934 27.012 33.9192C27.1439 34.5128 27.2915 34.6615 27.315 34.685M35.2293 28.0272L27.315 34.685M35.2293 28.0272L34.988 28.0808C35.1271 28.7066 35.2045 29.6226 35.2045 31C35.2045 32.3774 35.1271 33.2934 34.988 33.9192C34.8561 34.5127 34.7086 34.6614 34.685 34.685M35.2293 28.0272L34.685 34.685M27.315 34.685L27.1382 34.8618H34.8618L34.685 34.685M27.315 34.685C27.3385 34.7085 27.4872 34.8561 28.0808 34.988L28.0266 35.2321L28.0808 34.988C28.7066 35.1271 29.6226 35.2045 31 35.2045C32.3774 35.2045 33.2934 35.1271 33.9192 34.988C34.5127 34.8561 34.6614 34.7086 34.685 34.685C34.685 34.685 34.685 34.685 34.685 34.685M23.75 31C23.75 32.4468 23.8272 33.6265 24.0391 34.5799C24.2516 35.5361 24.6029 36.2798 25.1615 36.8385C25.7202 37.3971 26.4639 37.7484 27.4201 37.9609C28.3735 38.1728 29.5532 38.25 31 38.25C32.4468 38.25 33.6265 38.1728 34.5799 37.9609C35.5361 37.7484 36.2798 37.3971 36.8385 36.8385C37.3971 36.2798 37.7484 35.5361 37.9609 34.5799C38.1728 33.6265 38.25 32.4468 38.25 31C38.25 29.5532 38.1728 28.3735 37.9609 27.4201C37.7484 26.4639 37.3971 25.7202 36.8385 25.1615C36.2798 24.6029 35.5361 24.2516 34.5799 24.0391C33.6265 23.8272 32.4468 23.75 31 23.75C29.5532 23.75 28.3735 23.8272 27.4201 24.0391C26.4639 24.2516 25.7202 24.6029 25.1615 25.1615C24.6029 25.7202 24.2516 26.4639 24.0391 27.4201C23.8272 28.3735 23.75 29.5532 23.75 31Z" fill="#4E93FF" stroke="#438DFF" stroke-width="0.5" stroke-linecap="round" stroke-linejoin="round"/>
<path opacity="0.5" d="M9.315 27.315L9.13822 27.1382L9.315 27.315C9.33854 27.2915 9.48721 27.1439 10.0808 27.012C10.7066 26.8729 11.6226 26.7955 13 26.7955C14.3774 26.7955 15.2934 26.8729 15.9192 27.012C16.5128 27.1439 16.6615 27.2915 16.685 27.315L16.8492 27.1508L16.685 27.315C16.7085 27.3385 16.8561 27.4872 16.988 28.0808C17.1271 28.7066 17.2045 29.6226 17.2045 31C17.2045 32.3774 17.1271 33.2934 16.988 33.9192C16.8561 34.5128 16.7086 34.6615 16.685 34.685C16.6615 34.7085 16.5128 34.8561 15.9192 34.988C15.2934 35.1271 14.3774 35.2045 13 35.2045C11.6226 35.2045 10.7066 35.1271 10.0808 34.988L10.0266 35.2321L10.0808 34.988C9.48721 34.8561 9.33854 34.7085 9.315 34.685C9.29145 34.6615 9.14392 34.5128 9.01199 33.9192C8.87292 33.2934 8.79545 32.3774 8.79545 31C8.79545 29.6226 8.87292 28.7066 9.01199 28.0808C9.14392 27.4872 9.29145 27.3385 9.315 27.315ZM5.75 31C5.75 32.4468 5.8272 33.6265 6.03907 34.5799C6.25158 35.5361 6.60287 36.2798 7.16154 36.8385C7.7202 37.3971 8.46393 37.7484 9.42011 37.9609C10.3735 38.1728 11.5532 38.25 13 38.25C14.4468 38.25 15.6265 38.1728 16.5799 37.9609C17.5361 37.7484 18.2798 37.3971 18.8385 36.8385C19.3971 36.2798 19.7484 35.5361 19.9609 34.5799C20.1728 33.6265 20.25 32.4468 20.25 31C20.25 29.5532 20.1728 28.3735 19.9609 27.4201C19.7484 26.4639 19.3971 25.7202 18.8385 25.1615C18.2798 24.6029 17.5361 24.2516 16.5799 24.0391C15.6265 23.8272 14.4468 23.75 13 23.75C11.5532 23.75 10.3735 23.8272 9.42011 24.0391C8.46393 24.2516 7.7202 24.6029 7.16154 25.1615C6.60287 25.7202 6.25158 26.4639 6.03907 27.4201C5.8272 28.3735 5.75 29.5532 5.75 31Z" fill="#4E93FF" stroke="#438DFF" stroke-width="0.5" stroke-linecap="round" stroke-linejoin="round"/>
<path d="M9.01199 15.9192C8.87292 15.2934 8.79545 14.3774 8.79545 13C8.79545 11.6226 8.87292 10.7066 9.01199 10.0808C9.14392 9.48721 9.29145 9.33854 9.315 9.315L9.14664 9.14664L9.315 9.315C9.33854 9.29145 9.48721 9.14392 10.0808 9.01199C10.7066 8.87292 11.6226 8.79545 13 8.79545C14.3774 8.79545 15.2934 8.87292 15.9192 9.01199C16.5128 9.14392 16.6615 9.29145 16.685 9.315L16.8487 9.15132L16.685 9.315C16.7085 9.33854 16.8561 9.48721 16.988 10.0808C17.1271 10.7066 17.2045 11.6226 17.2045 13C17.2045 14.3774 17.1271 15.2934 16.988 15.9192C16.8561 16.5128 16.7085 16.6615 16.685 16.685C16.6615 16.7085 16.5128 16.8561 15.9192 16.988C15.2934 17.1271 14.3774 17.2045 13 17.2045C11.6226 17.2045 10.7066 17.1271 10.0808 16.988C9.48721 16.8561 9.33854 16.7085 9.315 16.685C9.29145 16.6615 9.14392 16.5128 9.01199 15.9192ZM5.75 13C5.75 14.4468 5.8272 15.6265 6.03907 16.5799C6.25158 17.5361 6.60287 18.2798 7.16154 18.8385C7.7202 19.3971 8.46393 19.7484 9.42011 19.9609C10.3735 20.1728 11.5532 20.25 13 20.25C14.4468 20.25 15.6265 20.1728 16.5799 19.9609C17.5361 19.7484 18.2798 19.3971 18.8385 18.8385C19.3971 18.2798 19.7484 17.5361 19.9609 16.5799C20.1728 15.6265 20.25 14.4468 20.25 13C20.25 11.5532 20.1728 10.3735 19.9609 9.42011C19.7484 8.46393 19.3971 7.7202 18.8385 7.16154C18.2798 6.60287 17.5361 6.25158 16.5799 6.03907C15.6265 5.8272 14.4468 5.75 13 5.75C11.5532 5.75 10.3735 5.8272 9.42011 6.03907C8.46393 6.25158 7.7202 6.60287 7.16154 7.16154C6.60287 7.7202 6.25158 8.46393 6.03907 9.42011C5.8272 10.3735 5.75 11.5532 5.75 13Z" fill="#4E93FF" stroke="#438DFF" stroke-width="0.5" stroke-linecap="round" stroke-linejoin="round"/>
</svg>
