<svg width="44" height="44" viewBox="0 0 44 44" fill="none" xmlns="http://www.w3.org/2000/svg">
<path fill-rule="evenodd" clip-rule="evenodd" d="M29.9607 24.9413L24.9413 29.9607C25.7773 30.7967 26.2396 31.2519 26.6006 31.5273C26.6053 31.5309 26.6099 31.5344 26.6144 31.5378C26.619 31.5344 26.6236 31.5309 26.6283 31.5273C26.9893 31.2519 27.4515 30.7967 28.2876 29.9607L29.9607 28.2876C30.7967 27.4515 31.2519 26.9893 31.5273 26.6283C31.5309 26.6236 31.5344 26.619 31.5378 26.6144C31.5344 26.6099 31.5309 26.6053 31.5273 26.6006C31.2519 26.2396 30.7967 25.7773 29.9607 24.9413ZM31.6684 26.811L31.6674 26.8089ZM26.811 31.6684L26.8089 31.6674ZM23.2682 31.6338C24.8456 33.2113 25.6343 34 26.6144 34C27.5945 34 28.3833 33.2113 29.9607 31.6338L31.6338 29.9607C33.2113 28.3832 34 27.5945 34 26.6144C34 25.6343 33.2113 24.8456 31.6338 23.2682L23.2682 31.6338Z" fill="#4E93FF"/>
<path fill-rule="evenodd" clip-rule="evenodd" d="M22.7603 11.4631C25.2804 11.827 27.4401 13.461 28.4775 15.7883L31.6338 23.2682L23.2682 31.6338L15.7883 28.4775C13.461 27.4402 11.827 25.2804 11.4631 22.7604L10.026 12.8096C9.79106 11.1829 11.1829 9.79106 12.8096 10.026L22.7603 11.4631ZM13.805 22.4222L12.4 12.5035C12.3913 12.4431 12.4399 12.3908 12.5035 12.4L22.4221 13.805C24.1304 14.0517 25.5973 15.1565 26.3076 16.7321L28.8347 22.721L22.721 28.8348L16.7321 26.3076C15.1565 25.5973 14.0517 24.1304 13.805 22.4222Z" fill="#4E93FF"/>
<path d="M12.4 14.1078C11.9284 13.6363 11.9284 12.8717 12.4 12.4001C12.8716 11.9285 13.6362 11.9285 14.1078 12.4001L17.7595 16.0518C18.5653 15.8367 19.4606 16.0451 20.0927 16.6772C21.0358 17.6204 21.0358 19.1496 20.0927 20.0928C19.1495 21.0359 17.6203 21.0359 16.6771 20.0928C16.0449 19.4606 15.8365 18.5652 16.0517 17.7595L12.4 14.1078Z" fill="white" fill-opacity="0.5"/>
</svg>
