<svg width="30" height="30" viewBox="0 0 30 30" fill="none" xmlns="http://www.w3.org/2000/svg">
<circle cx="14.5" cy="14.3233" r="5.5" fill="white"/>
<path fill-rule="evenodd" clip-rule="evenodd" d="M11 3.05176e-05C3.86806 0.739502 0.666063 3.92272 0.0947876 11.8234H3.10358C3.39595 8.17015 4.28298 6.227 5.45199 5.09974C6.50813 4.08132 8.18162 3.34864 11 3.0187V3.05176e-05ZM19 3.06222C21.6096 3.41046 23.1883 4.12394 24.2002 5.09974C25.3692 6.227 26.2563 8.17015 26.5486 11.8234H29.5574C28.9955 4.05233 25.8885 0.845211 19 0.0384059V3.06222ZM5.45199 24.1992C4.56363 23.3425 3.83811 22.0147 3.41265 19.8234H0.365317C1.38617 26.0212 4.62121 28.6375 11 29.2989V26.2802C8.18162 25.9503 6.50813 25.2176 5.45199 24.1992ZM29.2869 19.8234C28.2848 25.9076 25.1489 28.5403 19 29.2605V26.2367C21.6096 25.8884 23.1883 25.175 24.2002 24.1992C25.0886 23.3425 25.8141 22.0147 26.2396 19.8234H29.2869Z" fill="white"/>
</svg>
