<svg width="29" height="29" viewBox="0 0 29 29" fill="none" xmlns="http://www.w3.org/2000/svg">
<path d="M13.576 5.99756C13.1846 5.99756 12.8672 6.3149 12.8672 6.70635V8.12394H15.7024V6.70635C15.7024 6.3149 15.3851 5.99756 14.9936 5.99756H13.576Z" fill="#8C95A6"/>
<path d="M12.1584 14.503C12.1584 14.1115 11.8411 13.7942 11.4496 13.7942C11.0582 13.7942 10.7408 14.1115 10.7408 14.503V18.7557C10.7408 19.1472 11.0582 19.4645 11.4496 19.4645C11.8411 19.4645 12.1584 19.1472 12.1584 18.7557V14.503Z" fill="#8C95A6"/>
<path d="M14.9936 14.503C14.9936 14.1115 14.6762 13.7942 14.2848 13.7942C13.8933 13.7942 13.576 14.1115 13.576 14.503V18.7557C13.576 19.1472 13.8933 19.4645 14.2848 19.4645C14.6762 19.4645 14.9936 19.1472 14.9936 18.7557V14.503Z" fill="#8C95A6"/>
<path d="M17.1199 13.7942C17.5114 13.7942 17.8287 14.1115 17.8287 14.503V18.7557C17.8287 19.1472 17.5114 19.4645 17.1199 19.4645C16.7285 19.4645 16.4112 19.1472 16.4112 18.7557V14.503C16.4112 14.1115 16.7285 13.7942 17.1199 13.7942Z" fill="#8C95A6"/>
<path d="M8.28857 10.1379C9.13089 9.59713 11.1163 8.83262 14.2848 8.83262C17.4428 8.83262 19.3745 9.59262 20.2984 10.1487C20.6338 10.3506 21.0694 10.2423 21.2712 9.90691C21.4731 9.57152 21.3648 9.13599 21.0294 8.93413C19.8597 8.23014 17.6695 7.41504 14.2848 7.41504C10.9106 7.41504 8.64323 8.22563 7.52274 8.94496C7.19333 9.15643 7.09772 9.59491 7.3092 9.92433C7.52067 10.2537 7.95915 10.3494 8.28857 10.1379Z" fill="#8C95A6"/>
<path fill-rule="evenodd" clip-rule="evenodd" d="M7.47598 16.6293C7.51782 16.8175 7.55821 17.0005 7.59749 17.1784C8.62323 21.825 8.88449 23.0085 14.2848 23.0085C19.6851 23.0085 19.9463 21.825 20.9721 17.1784C21.0113 17.0006 21.0518 16.8175 21.0936 16.6293C22.2284 11.526 19.8918 10.2502 14.2848 10.2502C8.67773 10.2502 6.34119 11.526 7.47598 16.6293ZM8.98378 16.8817C9.21214 17.9155 9.38791 18.7111 9.58687 19.3683C9.81788 20.1314 10.0335 20.5355 10.2579 20.7854C10.6519 21.224 11.4413 21.5909 14.2848 21.5909C17.1283 21.5909 17.9177 21.224 18.3117 20.7854C18.5361 20.5355 18.7517 20.1314 18.9827 19.3683C19.1817 18.7111 19.3574 17.9155 19.5858 16.8818C19.6254 16.7024 19.6666 16.5159 19.7098 16.3216C20.2451 13.9146 19.8179 13.0403 19.3075 12.6131C18.9841 12.3424 18.4554 12.0925 17.5938 11.919C16.7362 11.7463 15.6449 11.6678 14.2848 11.6678C12.9247 11.6678 11.8333 11.7463 10.9757 11.919C10.1142 12.0925 9.58549 12.3424 9.26208 12.6131C8.75173 13.0403 8.32453 13.9146 8.85976 16.3216C8.90294 16.5158 8.94417 16.7024 8.98378 16.8817Z" fill="#8C95A6"/>
</svg>
