<svg width="18" height="18" viewBox="0 0 18 18" fill="none" xmlns="http://www.w3.org/2000/svg">
<path d="M14.8542 7.77678C12.4554 8.57638 9.25696 5.37797 10.0566 2.97917M11.0421 1.99362L5.87407 7.16165C3.62732 9.4084 2.03342 12.2235 1.26279 15.306L1.01308 16.3049C0.935266 16.6161 1.21718 16.8981 1.52842 16.8203L2.52729 16.5705C5.60981 15.7999 8.42493 14.206 10.6717 11.9593L15.8397 6.79123C16.4759 6.15503 16.8333 5.29215 16.8333 4.39242C16.8333 2.51884 15.3145 1 13.4409 1C12.5412 1 11.6783 1.35742 11.0421 1.99362Z" stroke="white" stroke-width="1.3"/>
<path d="M10.0476 9.48218L6.65472 12.3096" stroke="white" stroke-linecap="round"/>
</svg>
