<svg width="19" height="19" viewBox="0 0 19 19" fill="none" xmlns="http://www.w3.org/2000/svg">
<path d="M14.9535 2.63589L14.9536 2.636L16.3646 4.04698C16.3646 4.04699 16.3646 4.047 16.3646 4.04701C16.6376 4.32006 16.7875 4.68203 16.7875 5.0679V16.052C16.7875 16.4573 16.4573 16.7875 16.052 16.7875H2.94796C2.54274 16.7875 2.2125 16.4573 2.2125 16.052V2.94796C2.2125 2.54274 2.54274 2.2125 2.94796 2.2125H13.9327C14.313 2.2125 14.6849 2.3667 14.9535 2.63589ZM2.94796 18.15H16.052C17.2094 18.15 18.15 17.2094 18.15 16.052V5.0679C18.15 4.31916 17.8579 3.61371 17.3276 3.08339L15.9167 1.67253C15.3948 1.14917 14.6716 0.85 13.9327 0.85H2.94796C1.79056 0.85 0.85 1.79056 0.85 2.94796V16.052C0.85 17.2094 1.79056 18.15 2.94796 18.15Z" fill="#8C95A6" stroke="#8C95A6" stroke-width="0.3"/>
<path d="M4.5 6.15H11.5C11.8684 6.15 12.15 5.83293 12.15 5.46428V1.53572C12.15 1.16708 11.8684 0.85 11.5 0.85C11.1316 0.85 10.85 1.16708 10.85 1.53572V4.77856H5.15V1.53572C5.15 1.16708 4.86842 0.85 4.5 0.85C4.13158 0.85 3.85 1.16708 3.85 1.53572V5.46428C3.85 5.83293 4.13158 6.15 4.5 6.15Z" fill="#8C95A6" stroke="#8C95A6" stroke-width="0.3"/>
<path d="M6.85 12C6.85 13.7369 8.2631 15.15 10 15.15C11.7369 15.15 13.15 13.7369 13.15 12C13.15 10.2631 11.7369 8.85 10 8.85C8.2631 8.85 6.85 10.2631 6.85 12ZM8.15 12C8.15 10.9802 8.98018 10.15 10 10.15C11.0198 10.15 11.85 10.9802 11.85 12C11.85 13.0198 11.0198 13.85 10 13.85C8.98018 13.85 8.15 13.0198 8.15 12Z" fill="#8C95A6" stroke="#8C95A6" stroke-width="0.3"/>
</svg>
