<svg width="30" height="30" viewBox="0 0 30 30" fill="none" xmlns="http://www.w3.org/2000/svg">
<path d="M14.5 19.8232C17.5376 19.8232 20 17.3608 20 14.3232C20 11.2857 17.5376 8.82324 14.5 8.82324C11.4624 8.82324 9 11.2857 9 14.3232C9 17.3608 11.4624 19.8232 14.5 19.8232Z" fill="#438DFF"/>
<path fill-rule="evenodd" clip-rule="evenodd" d="M11 0C3.86806 0.739471 0.666063 3.92269 0.0947876 11.8234H3.10358C3.39595 8.17012 4.28298 6.22697 5.45199 5.09971C6.50813 4.08129 8.18162 3.34861 11 3.01867V0ZM19 3.06219C21.6096 3.41043 23.1883 4.12391 24.2002 5.09971C25.3692 6.22697 26.2563 8.17012 26.5486 11.8234H29.5574C28.9955 4.0523 25.8885 0.84518 19 0.0383754V3.06219ZM5.45199 24.1992C4.56363 23.3425 3.83811 22.0147 3.41265 19.8234H0.365317C1.38617 26.0212 4.62121 28.6375 11 29.2989V26.2802C8.18162 25.9503 6.50813 25.2176 5.45199 24.1992ZM29.2869 19.8234C28.2848 25.9076 25.1489 28.5403 19 29.2605V26.2367C21.6096 25.8884 23.1883 25.175 24.2002 24.1992C25.0886 23.3425 25.8141 22.0147 26.2396 19.8234H29.2869Z" fill="#4E93FF"/>
</svg>
