<svg width="30" height="35" viewBox="0 0 30 35" fill="none" xmlns="http://www.w3.org/2000/svg">
<path d="M7.2 16.5334V20.8667M7.2 16.5334V6.13338C7.2 5.44382 7.47393 4.7825 7.96152 4.2949C8.44912 3.80731 9.11044 3.53338 9.8 3.53338C10.4896 3.53338 11.1509 3.80731 11.6385 4.2949M7.2 16.5334C7.2 15.8438 6.92607 15.1825 6.43848 14.6949C5.95088 14.2073 5.28956 13.9334 4.6 13.9334C3.91044 13.9334 3.24912 14.2073 2.76152 14.6949C2.27393 15.1825 2 15.8438 2 16.5334V20C2 23.4479 3.36964 26.7545 5.80761 29.1924C8.24558 31.6304 11.5522 33 15 33C18.4478 33 21.7544 31.6304 24.1924 29.1924C26.6304 26.7545 28 23.4479 28 20V11.3334C28 10.6438 27.7261 9.9825 27.2385 9.4949C26.7509 9.00731 26.0896 8.73338 25.4 8.73338C24.7104 8.73338 24.0491 9.00731 23.5615 9.4949M12.4 4.40005C12.4 3.71049 12.6739 3.04917 13.1615 2.56157C13.6491 2.07398 14.3104 1.80005 15 1.80005C15.6896 1.80005 16.3509 2.07398 16.8385 2.56157C17.3261 3.04917 17.6 3.71049 17.6 4.40005V6.13338M17.6 6.13338V15.6667M17.6 6.13338C17.6 5.44382 17.8739 4.7825 18.3615 4.2949C18.8491 3.80731 19.5104 3.53338 20.2 3.53338C20.8896 3.53338 21.5509 3.80731 22.0385 4.2949C22.5261 4.7825 22.8 5.44382 22.8 6.13338" stroke="#4E93FF" stroke-width="3" stroke-linecap="round" stroke-linejoin="round"/>
<path d="M12.4 3.53357L12.4 17.4002" stroke="#4E93FF" stroke-width="3" stroke-linecap="round" stroke-linejoin="round"/>
<path d="M22.8 6.1333V17.4" stroke="#4E93FF" stroke-width="3" stroke-linecap="round" stroke-linejoin="round"/>
</svg>
